<?xml version="1.0" encoding="utf-8"?>
<svg version="1.1" xmlns:xlink="http://www.w3.org/1999/xlink" width="768px" height="416px" xmlns="http://www.w3.org/2000/svg">
  <defs>
    <filter x="16px" y="123px" width="768px" height="416px" filterUnits="userSpaceOnUse" id="filter157">
      <feOffset dx="0" dy="0" in="SourceAlpha" result="shadowOffsetInner" />
      <feGaussianBlur stdDeviation="2" in="shadowOffsetInner" result="shadowGaussian" />
      <feComposite in2="shadowGaussian" operator="atop" in="SourceAlpha" result="shadowComposite" />
      <feColorMatrix type="matrix" values="0 0 0 0 0  0 0 0 0 0  0 0 0 0 0  0 0 0 0.349019607843137 0  " in="shadowComposite" />
    </filter>
    <g id="widget158">
      <path d="M 20.5 131  A 3.5 3.5 0 0 1 24 127.5 L 776 127.5  A 3.5 3.5 0 0 1 779.5 131 L 779.5 531  A 3.5 3.5 0 0 1 776 534.5 L 24 534.5  A 3.5 3.5 0 0 1 20.5 531 L 20.5 131  Z " fill-rule="nonzero" fill="#ffffff" stroke="none" fill-opacity="0" />
      <path d="M 20.5 131  A 3.5 3.5 0 0 1 24 127.5 L 776 127.5  A 3.5 3.5 0 0 1 779.5 131 L 779.5 531  A 3.5 3.5 0 0 1 776 534.5 L 24 534.5  A 3.5 3.5 0 0 1 20.5 531 L 20.5 131  Z " stroke-width="1" stroke="#d7d7d7" fill="none" />
    </g>
  </defs>
  <g transform="matrix(1 0 0 1 -16 -123 )">
    <use xlink:href="#widget158" filter="url(#filter157)" />
    <use xlink:href="#widget158" />
  </g>
</svg>