<?xml version="1.0" encoding="utf-8"?>
<svg version="1.1" xmlns:xlink="http://www.w3.org/1999/xlink" width="548px" height="278px" xmlns="http://www.w3.org/2000/svg">
  <defs>
    <filter x="126px" y="16px" width="548px" height="278px" filterUnits="userSpaceOnUse" id="filter154">
      <feOffset dx="0" dy="0" in="SourceAlpha" result="shadowOffsetInner" />
      <feGaussianBlur stdDeviation="2" in="shadowOffsetInner" result="shadowGaussian" />
      <feComposite in2="shadowGaussian" operator="atop" in="SourceAlpha" result="shadowComposite" />
      <feColorMatrix type="matrix" values="0 0 0 0 0  0 0 0 0 0  0 0 0 0 0  0 0 0 0.349019607843137 0  " in="shadowComposite" />
    </filter>
    <g id="widget155">
      <path d="M 130.5 24  A 3.5 3.5 0 0 1 134 20.5 L 666 20.5  A 3.5 3.5 0 0 1 669.5 24 L 669.5 286  A 3.5 3.5 0 0 1 666 289.5 L 134 289.5  A 3.5 3.5 0 0 1 130.5 286 L 130.5 24  Z " fill-rule="nonzero" fill="#ffffff" stroke="none" fill-opacity="0" />
      <path d="M 130.5 24  A 3.5 3.5 0 0 1 134 20.5 L 666 20.5  A 3.5 3.5 0 0 1 669.5 24 L 669.5 286  A 3.5 3.5 0 0 1 666 289.5 L 134 289.5  A 3.5 3.5 0 0 1 130.5 286 L 130.5 24  Z " stroke-width="1" stroke="#d7d7d7" fill="none" />
    </g>
  </defs>
  <g transform="matrix(1 0 0 1 -126 -16 )">
    <use xlink:href="#widget155" filter="url(#filter154)" />
    <use xlink:href="#widget155" />
  </g>
</svg>