<?xml version="1.0" encoding="utf-8"?>
<svg version="1.1" xmlns:xlink="http://www.w3.org/1999/xlink" width="19px" height="28px" xmlns="http://www.w3.org/2000/svg">
  <g transform="matrix(1 0 0 1 -36 -949 )">
    <path d="M 14.8267341772152 17.1742905982906  C 19.1390126582278 14.3288205128205  20.2948860759494 8.59576068376068  17.4198734177215 4.34837606837606  C 15.6863037974683 1.79200000000001  12.7756962025316 0.25128205128204  9.65488607594937 0.239316239316239  C 4.4686075949367 0.225435897435899  0.25493670886076 4.34837606837606  0.240506329113924 9.45634188034188  C 0.226556962025318 12.5521367521368  1.79081012658228 15.4531282051282  4.41232911392405 17.1742905982906  C 4.86303797468355 18.0626324786325  5.27189873417722 18.8260512820513  5.45516455696203 19.2979829059829  C 6.61055696202531 21.755282051282  8.87997468354431 27.5161025641026  8.87997468354431 27.5161025641026  C 9.00560729938973 27.8093340971095  9.29502418977368 27.9996233999856  9.61537648828088 27.9996233999856  C 9.72601701147961 27.9996233999856  9.83545306134942 27.9767711750739  9.93675949367089 27.9325128205128  C 10.1339746835443 27.8492307692308  10.2888607594937 27.696547008547  10.3595696202532 27.5161025641026  C 10.3595696202532 27.5161025641026  12.6285063291139 21.7275213675214  13.7838987341772 19.2979829059829  C 14.0094936708861 18.8260512820513  14.4044050632911 18.0631111111111  14.8267341772152 17.1742905982906  Z M 9.71116455696202 2.46017094017093  C 13.6852911392405 2.46017094017093  16.9124050632911 5.63924786324785  16.9124050632911 9.55350427350426  C 16.9124050632911 13.4821196581197  13.6992405063291 16.6468376068376  9.71116455696202 16.6468376068376  C 5.73703797468354 16.6468376068376  2.50944303797468 13.4682393162393  2.50944303797468 9.55350427350426  C 2.50944303797468 5.63924786324785  5.73703797468354 2.46017094017093  9.71116455696202 2.46017094017093  Z M 9.38696202531646 5.41716239316238  C 9.34029630349144 5.35021446187368  9.28127949388037 5.29363932511608  13.0466104193007 6.11538134019483  L 12.0363797468354 7.84622222222221  L 10.0476649794507 7.86010256409874  L 9.97987945625065 7.86010256407969  L 10.5991139240506 7.48533333333334  L 9.38696202531646 5.41716239316238  C 9.33275682755684 5.34822830687951  9.26997592839992 5.29216643620609  9.20101633296682 5.26495726495726  L 9.02043037974684 5.26495726495726  C 9.08389331815117 5.23974080730496  9.1572158158771 5.24266876718835  9.21370433266038 5.26495726495726  L 11.4726329113924 5.26495726495726  C 11.5432358051669 5.20268708910831  11.6136900093239 5.19663938060134  11.6744885882135 5.22262971789257  C 11.7285182021041 5.23997188503918  11.7756039972872 5.28166869296466  11.8107848101266 5.33388034188035  L 12.4413399079298 6.43831817859777  L 13.0652658227848 6.08341880341879  L 13.0466104189385 6.11538134078582  L 13.0796962025316 6.09729914529913  L 12.0503291139241 7.86010256410258  L 10.0476649797198 7.86010256410258  L 9.97987945623077 7.86010256410258  L 9.97860759493671 7.86010256410258  L 10.5991139240506 7.48533333333334  L 9.38696202531646 5.41716239316238  Z M 6.82220253164557 12.9407863247863  C 5.7226075949367 11.0248205128205  5.73703797468354 11.0387008547008  5.77979168750458 11.0438792492092  C 5.84809645822615 11.0791127265253  5.92670539807489 11.0924313901979  6.00448101265823 11.0803418803419  L 6.00496202531646 11.2478632478632  L 9.45718987341772 11.2478632478632  L 9.45718987341772 13.1767521367521  L 7.1319746835443 13.1767521367521  C 6.99103797468354 13.1906324786325  6.89243037974684 13.0518290598291  6.82220253164557 12.9407863247863  Z M 11.4186958687216 8.86423225963907  L 11.4026185300785 8.87372640052506  L 12.5582784810127 10.817094017094  L 11.402618528438 8.87372639496192  L 11.4189074333507 8.86458794943148  L 12.571746835443 10.802735042735  L 13.5583037974684 10.802735042735  C 13.6284880450385 10.7928556683165  13.7049317531836 10.7645181496877  13.7812800512649 10.7208504915278  C 14.0617008394475 10.5496788680572  14.3387192073046 10.1821660311861  14.2938464148276 9.76569205719329  C 14.2824897317357 9.66028825507702  14.250515080206 9.55174836441827  14.1927594936709 9.44246153846154  L 13.2341012658228 7.84622222222221  L 11.4186958687216 8.86423225963907  Z M 7.23058227848102 8.27651282051281  L 5.15549367073071 8.27651282051281  L 5.13096202531646 8.27651282051281  L 5.78702794091349 8.64772392327729  L 5.79331645569621 8.65128205128205  L 5.37050632911392 9.34529914529913  C 5.30699268083021 9.45883428903269  5.27135872522192 9.57470347309519  5.25783624474533 9.68915742965931  C 5.19035177310351 10.2603444096973  5.67356428119511 10.7962844645823  5.99053164556962 10.8309743589744  L 6.94870886075949 10.8309743589744  L 7.62549367088608 9.70618803418803  L 8.28784810126583 10.0670769230769  L 7.81386954912689 9.26435639380655  L 7.23058227848102 8.27651282051281  L 5.15549367073071 8.27651282051281  L 5.13096202531646 8.27651282051281  L 5.78702794091349 8.64772392327729  L 5.79331645569621 8.65128205128205  L 5.37050632911392 9.34529914529913  C 5.30699268083021 9.45883428903269  5.27135872522192 9.57470347309519  5.25783624474533 9.68915742965931  C 5.19035177310351 10.2603444096973  5.67356428119511 10.7962844645823  5.99053164556962 10.8309743589744  L 6.94870886075949 10.8309743589744  L 7.62549367088608 9.70618803418803  L 8.28784810126583 10.0670769230769  L 7.81386954912689 9.26435639380655  L 7.23058227848102 8.27651282051281  Z M 13.839648832553 10.9563406270204  C 13.8216176170526 10.9714474037984  13.8031204167127 10.9851791885583  13.7841542949501 10.997533059248  C 13.6995329881633 11.0526524291818  13.6055769363346 11.0803418803419  13.5020253164557 11.0803418803419  L 13.5020253134742 11.2472101888629  L 11.0782025316456 11.2478632478632  L 11.0777215092392 10.3593789701856  L 10.0209367088608 12.1496068376068  L 11.0782025316456 13.9262905982906  L 11.0782025316456 13.1767521367521  L 12.3745316455696 13.1767521367521  C 12.4995899998362 13.1774363479255  12.6142254799461 13.1075115937004  12.6703544303798 12.9963076923077  L 13.839648832553 10.9563406270204  C 13.8216176170526 10.9714474037984  13.8031204167127 10.9851791885583  13.7841542949501 10.997533059248  C 13.6995329881633 11.0526524291818  13.6055769363346 11.0803418803419  13.5020253164557 11.0803418803419  L 13.5020253134742 11.2472101888629  L 11.0782025316456 11.2478632478632  L 11.0777215092392 10.3593789701856  L 10.0209367088608 12.1496068376068  L 11.0782025316456 13.9262905982906  L 11.0782025316456 13.1767521367521  L 12.3745316455696 13.1767521367521  C 12.4995899998362 13.1774363479255  12.6142254799461 13.1075115937004  12.6703544303798 12.9963076923077  L 13.839648832553 10.9563406270204  Z M 13.8396488211015 10.9563406469988  C 13.8218044498352 10.9712687902537  13.8036132768097 10.9840293588158  13.5020253103368 11.2472101889091  L 11.0782025346387 11.2478632478632  L 11.0777215189873 10.3593789569447  L 10.0209367088608 12.1496068376068  L 11.0782025316456 13.9262905982906  L 11.0782025316456 13.1767521367521  L 12.3745316455696 13.1767521367522  C 12.4995899998363 13.1774363479255  12.6142254799461 13.1075115937004  12.6703544303798 12.9963076923077  L 13.8396488211015 10.9563406469988  Z M 9.20044421311665 5.26495726495726  L 9.21370433255492 5.26495726495726  L 11.4726329113924 5.26495726495726  C 11.5432358051669 5.20268708910831  11.6136900093239 5.19663938060134  11.6744885882167 5.2226297178939  C 11.723043174674 5.2433859609198  11.7654395572211 5.28457555896135  11.796835443038 5.33388034188035  L 12.4413399079298 6.43831817859777  L 13.0652658227848 6.08341880341879  L 13.0466104193007 6.11538134019483  L 12.0363797468354 7.84622222222221  L 10.0468485638307 7.85964539431248  L 9.97988837212939 7.86009716816958  L 10.5991139240506 7.48533333333334  L 9.38696202531646 5.41716239316238  C 9.34029630351198 5.35021446190314  9.28127949393231 5.29363932516587  9.21370433025448 5.26495726495835  C 9.15492332044252 5.24000785501103  9.08966655994226 5.23616397653364  9.02043037974684 5.26495726495726  L 9.20044421311665 5.26495726495726  Z M 6.62450632911392 7.29100854700855  L 8.43227170494474 8.32604390364084  L 8.44273417721519 8.3320341880342  L 9.59812658227849 6.34714529914531  L 9.13346835443038 5.58372649572649  C 8.79483544303797 5.19507692307692  7.8227088607595 5.20895726495726  7.56921518987341 5.6531282051282  L 6.62450632911392 7.29100854700855  L 8.43227170494474 8.32604390364084  L 8.44273417721519 8.3320341880342  L 9.59812658227849 6.34714529914531  L 9.13346835443038 5.58372649572649  C 8.79483544303797 5.19507692307692  7.8227088607595 5.20895726495726  7.56921518987341 5.6531282051282  L 6.62450632911392 7.29100854700855  Z M 7.23058227848102 8.26311111111112  L 5.15549367075051 8.27651282043611  L 5.13096202531646 8.26263247863247  L 7.23058227848102 8.26311111111112  Z M 5.69470886075949 10.9831794871795  C 5.7202947666831 11.0076539882516  5.74899594865316 11.0279939610398  6.00496202531646 11.2478632478632  L 9.45718987341772 11.2478632478632  L 9.45718987341772 13.1767521367521  L 7.1319746835443 13.1767521367521  C 6.99103797468355 13.1906324786325  6.89243037974684 13.0518290598291  6.82220253164558 12.9407863247863  C 5.72260759493672 11.0387008547008  5.73703797468356 11.0387008547008  5.69470886075949 10.9831794871795  C 5.7202947666831 11.0076539882516  5.74899594865316 11.0279939610398  5.77979168750458 11.0438792492092  C 5.84809645822615 11.0791127265253  5.92670539807489 11.0924313901979  6.00448101265823 11.0803418803419  L 6.0049620256382 11.2478632478632  L 9.45718987341772 11.2478632478632  L 9.45718987341772 13.1767521367521  L 7.1319746835443 13.1767521367521  C 6.99103797468354 13.1906324786325  6.89243037974684 13.0518290598291  6.82220253164557 12.9407863247863  C 5.7226075949367 11.0248205128205  5.73703797468354 11.0387008547008  5.69470886075949 10.9831794871795  Z M 11.4158734177215 8.85948717948718  L 13.2341012658228 7.84622222222224  L 14.1927594936709 9.45634188034188  C 14.2490123289765 9.56056758781252  14.2811766968678 9.66443900941907  14.2938464164331 9.76569207101028  C 14.3314081891395 10.0658758647967  14.1976241232241 10.3430459019286  14.0121988983681 10.5382054586905  C 14.2601072912641 10.2798265445761  14.4220643742114 9.86677378351614  14.2067088607595 9.44246153846154  L 13.2485316455696 7.83234188034187  L 11.4158734177215 8.85948717948718  Z M 5.37050632911393 9.33141880341879  C 5.30532386839368 9.45031499130975  5.26991481991071 9.57084068413559  5.78702793893479 8.64772392699783  L 5.37050632911393 9.33141880341879  Z M 14.0121988966054 10.5382054605395  C 13.94106076434 10.6130781558382  13.8623217625898 10.6758800352387  13.782741351984 10.723279683247  C 13.7017772283743 10.771503497766  13.6199421813517 10.8037848084217  13.5443544303798 10.8166153846154  C 13.6184461932768 10.8035786225867  13.7000060251915 10.7704609611336  13.7812800438056 10.7208504960812  C 13.8607447856069 10.6754003780676  13.9401061612309 10.6133430646402  14.0121988966054 10.5382054605395  Z M 9.02043037974684 5.26495726495726  C 9.08966655997729 5.23616397651906  9.15492332050854 5.24000785501493  9.21370433255492 5.26495726495726  L 9.20044419321212 5.26495726495726  L 9.02043037974684 5.26495726495726  Z M 5.69470886075949 10.9831794871795  C 5.72088334906463 11.0054221760324  5.74948755516702 11.0241429105822  5.69470886075949 10.9831794871795  Z M 11.796835443038 5.33388034188035  C 11.7654395572211 5.28457555896135  11.723043174674 5.2433859609198  12.4413399079298 6.43831817859777  L 11.796835443038 5.33388034188035  Z M 12.5582784810127 10.8166153846154  L 13.5443544303798 10.8166153846154  L 12.5582784810127 10.8166153846154  Z " fill-rule="nonzero" fill="#409eff" stroke="none" transform="matrix(1 0 0 1 36 949 )" />
  </g>
</svg>